<svg xmlns="http://www.w3.org/2000/svg" xmlns:xlink="http://www.w3.org/1999/xlink" viewBox="0 0 500 500"><defs><clipPath id="freepik--clip-path--inject-4"><path d="M366.86,219.8s-4.73,4.1-6.62,8.83-1.58,9.47-6.31,11-7.57,0-7.57,0,3.78-9.46,6-12.62S366.86,219.8,366.86,219.8Z" style="fill:none;stroke:#263238;stroke-linecap:round;stroke-linejoin:round"></path></clipPath><clipPath id="freepik--clip-path-2--inject-4"><path d="M355.38,80.56s-11.86,30.71-16.59,39.23-10.73,11-17.67,13.88-26.5,15.14-28.4,19.88-4.1,18.93-6,23.66-5.68,7.25-11.36,8.83-11.67,2.53-10.72,5.36,10.09,4.74,19.24,3.48,12.62-3.79,15.46-7.58,7.57-12,9.46-12.93l1.9-1s-.32,33.76.31,37.86-2.84,18.3-9.78,35.34-1.89,28.39.32,30.6,6.62,2.21,7.57,1.26.32-13.57,2.21-21.77,12.93-30,16.09-34.39a114.86,114.86,0,0,0,6.62-11,136.58,136.58,0,0,1-7.88,30c-6.31,16.41-12.94,27.13-14.2,31.87s3.47,7.57,6.31,6.31,8.83-13.89,11-18.3S337.84,246,337.84,246A10.11,10.11,0,0,0,347,242.2c3.78-4.73,9.78-14.51,9.78-14.51s8.83-4.74,10.09-7.89,3.47-33.76,5.37-44.49,7.25-33.75,10.09-42.9,23.54-48.69,23.54-48.69" style="fill:#fff;stroke:#263238;stroke-linecap:round;stroke-linejoin:round"></path></clipPath><clipPath id="freepik--clip-path-3--inject-4"><path d="M168.39,83s10.76,38.4,13,43.13,14.19,12.3,16.4,22.71,5.05,14.83,7.57,22.72,4.74,7.89.95,14.51-4.42,10.73-1.89,14.83,15.46,9.46,13.88,12.62-3.16,4.1-4.42,4.1h-1.26s2.84,10.41,1.26,14.2-5.36,6.31-6.62,4.41-3.47-4.73-3.47-4.73,2.52,5.05-.63,5.68-3.79-.31-8.52-2.52-15.46-4.42-15.46-4.42-12.62,5-16.72,6.31-9.15-.32-9.15-.32-13.57,5.37-15.78,1-3.78-22.71-4.73-26.18-4.1-6.31-3.47-11.68,2.21-8.52,2.53-10.72,8.51-42.28,8.51-51.11-15.45-53-15.45-53" style="fill:#fff;stroke:#263238;stroke-linecap:round;stroke-linejoin:round"></path></clipPath></defs><g id="freepik--background-simple--inject-4"><path d="M106.65,396.3S149.73,444.85,218.47,443s127.66-48.15,176.38-84.39,62.14-93,34.23-137.53-72.89-26.18-129.84-55.38-67.69-45.61-131.39-39S55.17,204.48,61.88,280.8,106.65,396.3,106.65,396.3Z" style="fill:#FFFFFF"></path><path d="M106.65,396.3S149.73,444.85,218.47,443s127.66-48.15,176.38-84.39,62.14-93,34.23-137.53-72.89-26.18-129.84-55.38-67.69-45.61-131.39-39S55.17,204.48,61.88,280.8,106.65,396.3,106.65,396.3Z" style="fill:#fff;opacity:0.7000000000000001"></path></g><g id="freepik--Device--inject-4"><rect x="215.84" y="223.45" width="148.28" height="70.04" rx="5.49" transform="translate(548.46 -31.51) rotate(90)" style="opacity:0.2"></rect><rect x="212.91" y="221.69" width="148.28" height="70.04" rx="5.49" transform="translate(543.76 -30.33) rotate(90)" style="fill:#b5b5b5;stroke:#263238;stroke-linecap:round;stroke-linejoin:round"></rect><path d="M316.58,182.57H257.51a5.48,5.48,0,0,0-5.48,5.49v3.34h70v-3.34A5.48,5.48,0,0,0,316.58,182.57Z" style="fill:#FFFFFF;stroke:#263238;stroke-linecap:round;stroke-linejoin:round"></path><rect x="256.13" y="198.66" width="44.8" height="73.19" style="fill:#263238;stroke:#263238;stroke-linecap:round;stroke-linejoin:round"></rect><path d="M252,323v2.4a5.48,5.48,0,0,0,5.48,5.49h59.07a5.48,5.48,0,0,0,5.48-5.49V323Z" style="fill:#FFFFFF;stroke:#263238;stroke-linecap:round;stroke-linejoin:round"></path><rect x="282.94" y="307.82" width="13.88" height="15.14" style="fill:none;stroke:#263238;stroke-linecap:round;stroke-linejoin:round"></rect><path d="M293.67,307.82a4.1,4.1,0,1,0-4.1,4.1A4.1,4.1,0,0,0,293.67,307.82Z" style="fill:none;stroke:#263238;stroke-linecap:round;stroke-linejoin:round"></path><line x1="288.31" y1="303.72" x2="288.31" y2="271.85" style="fill:#fff;stroke:#263238;stroke-linecap:round;stroke-linejoin:round"></line><rect x="256.13" y="281.32" width="12.93" height="16.41" style="fill:none;stroke:#263238;stroke-linecap:round;stroke-linejoin:round"></rect><rect x="289.88" y="322.96" width="12.62" height="7.89" style="fill:#263238;stroke:#263238;stroke-linecap:round;stroke-linejoin:round"></rect><polygon points="286.9 214.89 280.19 214.89 272.33 233.06 278 233.06 271.33 250.89 286.67 228.39 280.67 228.39 286.9 214.89" style="fill:#FFFFFF"></polygon><path d="M161.55,341.34h10.29v70H161.55a5.48,5.48,0,0,1-5.48-5.48V346.83A5.48,5.48,0,0,1,161.55,341.34Z" style="opacity:0.2"></path><path d="M159.71,339.81H170v70H159.71a5.48,5.48,0,0,1-5.48-5.49V345.29A5.48,5.48,0,0,1,159.71,339.81Z" style="fill:#FFFFFF;stroke:#263238;stroke-linecap:round;stroke-linejoin:round"></path><path d="M361.86,341.57H351.57v30.14a6,6,0,1,1,0,9.76v30.14h10.29a5.49,5.49,0,0,0,5.49-5.49V347.06A5.49,5.49,0,0,0,361.86,341.57Z" style="opacity:0.2"></path><path d="M360.1,339.81H349.81V370a6,6,0,1,1,0,9.76v30.14H360.1a5.48,5.48,0,0,0,5.48-5.49V345.29A5.48,5.48,0,0,0,360.1,339.81Z" style="fill:#FFFFFF;stroke:#263238;stroke-linecap:round;stroke-linejoin:round"></path><rect x="188.35" y="342.16" width="148.28" height="70.04" rx="5.49" style="opacity:0.2"></rect><rect x="184.83" y="339.81" width="148.28" height="70.04" rx="5.49" style="fill:#263238;stroke:#263238;stroke-linecap:round;stroke-linejoin:round"></rect><rect x="186.54" y="341.38" width="144.86" height="66.9" rx="5.49" style="fill:#FFFFFF;stroke:#263238;stroke-linecap:round;stroke-linejoin:round"></rect><path d="M197,343.91h98.83a0,0,0,0,1,0,0v62.47a0,0,0,0,1,0,0H197a5.91,5.91,0,0,1-5.91-5.91V349.82A5.91,5.91,0,0,1,197,343.91Z" style="fill:#b5b5b5;stroke:#263238;stroke-linecap:round;stroke-linejoin:round"></path><circle cx="323.96" cy="374.51" r="4.1" style="fill:#263238;stroke:#263238;stroke-linecap:round;stroke-linejoin:round"></circle><rect x="299.03" y="394.39" width="2.84" height="11.99" style="fill:none;stroke:#263238;stroke-linecap:round;stroke-linejoin:round"></rect><rect x="299.03" y="376.09" width="2.84" height="11.99" style="fill:none;stroke:#263238;stroke-linecap:round;stroke-linejoin:round"></rect><path d="M221.63,280.32h-28v-1.53a1.5,1.5,0,0,0-3,0v24a1.5,1.5,0,0,0,3,0v-2.15h28a3.64,3.64,0,0,0,3.63-3.64V284A3.64,3.64,0,0,0,221.63,280.32Zm-28,2h19v16.3h-19ZM223.26,297a1.64,1.64,0,0,1-1.63,1.64h-7.09v-16.3h7.09a1.63,1.63,0,0,1,1.63,1.63Z" style="fill:#263238"></path><polygon points="205.08 247.56 193.35 247.56 193.35 272.49 213.85 272.49 213.85 255.61 205.08 247.56" style="fill:#FFFFFF;stroke:#263238;stroke-linecap:round;stroke-linejoin:round"></polygon><rect x="196.49" y="254.91" width="12.46" height="13.94" rx="2.51" style="fill:#fff;stroke:#263238;stroke-linecap:round;stroke-linejoin:round"></rect><line x1="202.6" y1="255.16" x2="202.6" y2="268.86" style="fill:none;stroke:#263238;stroke-linecap:round;stroke-linejoin:round"></line><line x1="196.49" y1="262.14" x2="208.82" y2="262.14" style="fill:none;stroke:#263238;stroke-linecap:round;stroke-linejoin:round"></line><path d="M199.48,268.74v-3.11a3.12,3.12,0,0,1,3.12-3.12h.11a3.13,3.13,0,0,1,3.13,3.12v3.22" style="fill:none;stroke:#263238;stroke-linecap:round;stroke-linejoin:round"></path><path d="M205.84,255.63v3.11a3.13,3.13,0,0,1-3.13,3.12h-.11a3.12,3.12,0,0,1-3.12-3.12v-3.22" style="fill:none;stroke:#263238;stroke-linecap:round;stroke-linejoin:round"></path></g><g id="freepik--tool-2--inject-4"><path d="M401.36,231.73a.5.5,0,0,0-.5-.5H381a.51.51,0,0,0-.5.5V246.4a.51.51,0,0,0,.15.35l4.13,50.61a.17.17,0,0,0,0,.07v52.32a.48.48,0,0,0,.18.38l2.77,17.12a.5.5,0,0,0,.49.42H389l.67,38.25a1.27,1.27,0,0,0,2.53,0l.66-38.26h.77a.51.51,0,0,0,.5-.42l2.76-17.12a.49.49,0,0,0,.19-.38V297.43a.17.17,0,0,1,0-.07l4.13-50.61a.5.5,0,0,0,.14-.35Z" style="opacity:0.2"></path><path d="M388.39,406.67h0a.77.77,0,0,1-.76-.75l-.74-42.25h3l-.73,42.25A.77.77,0,0,1,388.39,406.67Z" style="fill:#fff;stroke:#263238;stroke-miterlimit:10"></path><polygon points="398.2 246.44 378.61 246.44 382.77 297.32 382.78 297.32 382.78 349.75 394.04 349.75 394.04 297.32 394.05 297.32 398.2 246.44" style="fill:#263238;stroke:#263238;stroke-linecap:round;stroke-linejoin:round"></polygon><rect x="378.49" y="231.73" width="19.83" height="14.66" style="fill:#FFFFFF;stroke:#263238;stroke-linecap:round;stroke-linejoin:round"></rect><polygon points="391.1 367.17 385.72 367.17 382.92 349.83 393.89 349.83 391.1 367.17" style="fill:#FFFFFF;stroke:#263238;stroke-linecap:round;stroke-linejoin:round"></polygon></g><g id="freepik--tool-1--inject-4"><path d="M134.82,247a.53.53,0,0,0-.15-.33.88.88,0,0,0-1-.27c-1.44.6-1.58,6.62-1.6,22.4,0,9.52,0,20.32-.77,27.42a374.89,374.89,0,0,1-11,55.66A76.9,76.9,0,0,0,117.88,363a78.29,78.29,0,0,0-2.46-11.09,373.64,373.64,0,0,1-11-55.66c-.75-7.1-.76-17.9-.77-27.42,0-15.78-.15-21.8-1.59-22.4a.9.9,0,0,0-1,.27.47.47,0,0,0-.14.33c0,.51-2.21,51.3,1.5,72.61,1.66,9.5,3.52,19.08,5.32,28.34,2.26,11.63,4.21,21.68,5.18,28.64,1.38,9.88,1.36,22.39,1.28,27.31a2.36,2.36,0,0,0,2.35,2.37h2.62a2.34,2.34,0,0,0,2.34-2.37c-.07-4.92-.1-17.42,1.28-27.31,1-7,2.93-17,5.19-28.64,1.79-9.26,3.65-18.84,5.31-28.34C137,298.3,134.84,247.51,134.82,247ZM117.88,371.75a3.19,3.19,0,0,0,.1.35l-.1.09-.1-.09C117.81,372,117.84,371.89,117.88,371.75Z" style="opacity:0.2"></path><path d="M132.13,247.28c-3-3-.75,32.75-2.5,49.25a372.77,372.77,0,0,1-11,55.75c-4.5,15.5-2.25,20.25-2.25,20.25l-.69.56c-.39-.33-.69-.56-.69-.56s2.25-4.75-2.25-20.25a372.77,372.77,0,0,1-11-55.75c-1.75-16.5.5-52.25-2.5-49.25,0,0-2.25,51,1.5,72.5s8.75,44.5,10.5,57c1.4,10,1.36,22.68,1.29,27.38a1.84,1.84,0,0,0,1.84,1.87H117a1.84,1.84,0,0,0,1.84-1.87c-.07-4.7-.1-17.4,1.29-27.38,1.75-12.5,6.75-35.5,10.5-57S132.13,247.28,132.13,247.28Z" style="fill:#263238;stroke:#263238;stroke-linecap:round;stroke-linejoin:round"></path></g></svg>